<?xml version="1.0" encoding="utf-8"?>
<!-- Generator: Adobe Illustrator 25.4.1, SVG Export Plug-In . SVG Version: 6.00 Build 0)  -->
<svg version="1.1" id="Layer_1" xmlns="http://www.w3.org/2000/svg" xmlns:xlink="http://www.w3.org/1999/xlink" x="0px" y="0px"
	 viewBox="0 0 500 500" style="enable-background:new 0 0 500 500;" xml:space="preserve">
<style type="text/css">
	.st0{fill:#2058BA;}
	.st1{font-family:'Axiforma-Black';}
	.st2{font-size:102.0774px;}
	.st3{letter-spacing:-8;}
	.st4{font-family:'Axiforma-Regular';}
	.st5{fill:#47B580;}
</style>
<g>
	<text transform="matrix(1 0 0 1 69.9717 246.5317)"><tspan x="0" y="0" class="st0 st1 st2 st3">P     T </tspan><tspan x="217.62" y="0" class="st0 st4 st2 st3">OF</tspan><tspan x="347.06" y="0" class="st0 st1 st2 st3">   </tspan></text>
	<path class="st5" d="M216.09,208.28c0.13-12.62-8.9-23.21-10.21-24.16c-1.32-0.95-0.56-4.41-0.56-4.41
		c0.94-0.68,1.69-2.17,1.69-2.17v-2.04c-0.13-2.04-8.77-3.33-8.77-3.33c-17.3-2.99-39.16,0-39.16,0c-9.4,1.49-8.71,3.6-8.71,3.6
		l0.06,2.31c0.38,1.02,1.69,2.31,1.69,2.31c0.56,2.92-0.81,4.95-0.81,4.95c-10.78,11-9.15,25.66-9.15,25.66
		c4.89,37.33,37.47,36.11,37.47,36.11C217.84,242.62,216.09,208.28,216.09,208.28z M183.4,228.57l-6.52,6.5l-5.53-5.39l3.37-0.31
		l0.3-3.65c-3.6-0.44-6.5-2.02-8.78-3.88l3.75-4.73c2.74,1.97,6.29,3.04,8.91,2.8c2.21-0.2,2.91-1.1,2.91-2.15
		c-0.01-3.32-14.33-0.57-14.35-9.12c-0.01-2.75,1.75-5.45,4.8-7.22c-1.19,1.02-2.12,2.34-2.54,3.84c-0.6,2.15,0.21,3.95,1.71,5.22
		c1.84,1.51,4.32,2.14,6.7,2.43c2.46,0.29,4.99,0.61,7.06,1.95c0.98,0.63,1.85,1.49,2.17,2.67c0.32,1.18,0.04,2.49-0.52,3.63
		c-0.04,0.08-0.08,0.16-0.13,0.24c-0.97,1.81-2.68,3.15-4.61,3.73c-0.58,0.17-1.17,0.31-1.79,0.42l-0.28,3.33L183.4,228.57z
		 M186.01,223.29c1.07-1.01,1.94-2.3,2.34-3.7c0.44-1.56,0.21-3.14-0.72-4.34c-0.86-1.11-2.13-1.87-3.43-2.39
		c-2.35-0.94-4.92-0.97-7.38-1.53c-1.82-0.41-3.87-1.18-5.03-2.61c-1.15-1.41-1.18-3.21-0.35-4.98c0.08-0.17,0.17-0.33,0.26-0.49
		c1.1-1.94,3.03-3.28,5.14-3.77c0.23-0.05,0.45-0.1,0.68-0.14l0.28-3.34l-3.37,0.31l6.52-6.5l5.53,5.39l-3.37,0.31l-0.32,3.9
		c3.27,0.7,5.82,2.5,7.12,4.22l-3.73,3.61c-2.21-1.61-4.76-2.5-7.08-2.29c-1.83,0.17-2.8,0.94-2.8,1.92
		c0.01,3.36,14.52,0.93,14.54,9.07C190.86,218.83,188.99,221.5,186.01,223.29z M178.54,178.45c-12.74,0-23.06-1.17-23.06-2.62
		s10.33-2.62,23.06-2.62c12.74,0,23.06,1.17,23.06,2.62S191.28,178.45,178.54,178.45z"/>
	<text transform="matrix(1 0 0 1 74.4917 328.5425)" class="st0 st1 st2 st3">NAMES</text>
</g>
</svg>
